<svg width="32" height="33" viewBox="0 0 32 33" fill="none" xmlns="http://www.w3.org/2000/svg">
<path d="M1.27533 19.584L2.90079 21.2065C3.301 21.6055 3.52552 22.1478 3.52427 22.7129V24.6138C3.52552 25.7703 3.98553 26.8789 4.80314 27.6968C5.62072 28.5146 6.72913 28.9749 7.88565 28.9764H9.7865C10.3507 28.9784 10.8914 29.2024 11.2914 29.6001L12.9154 31.2241C13.734 32.0413 14.8432 32.5 15.9997 32.5C17.1562 32.5 18.2654 32.0412 19.084 31.2241L20.7065 29.6001C21.1072 29.2027 21.6482 28.9786 22.2128 28.9764H24.1152C25.2714 28.9749 26.3801 28.5147 27.1977 27.6968C28.0153 26.8789 28.4753 25.7703 28.4763 24.6138V22.7129C28.4753 22.1477 28.6998 21.6055 29.1 21.2065L30.724 19.584C31.5406 18.7652 31.9994 17.656 31.9994 16.4997C31.9994 15.3435 31.5406 14.2343 30.724 13.4154L29.0986 11.7929C28.6983 11.394 28.4738 10.8517 28.4751 10.2866V8.3857C28.4738 7.22919 28.0138 6.12052 27.1962 5.30269C26.3786 4.48486 25.2702 4.02459 24.1137 4.02306H22.2128C21.6489 4.02131 21.1082 3.79779 20.708 3.40082L19.084 1.77536C18.2651 0.958739 17.1559 0.5 15.9997 0.5C14.8434 0.5 13.7342 0.958765 12.9154 1.77536L11.2929 3.40082C10.8922 3.79829 10.3511 4.02231 9.7865 4.0243H7.88417C6.72791 4.02604 5.61925 4.48631 4.80167 5.30413C3.98409 6.12196 3.52408 7.23063 3.52306 8.38714V10.2865C3.5243 10.8514 3.30052 11.3936 2.90082 11.7928L1.27536 13.4153C0.458739 14.2342 0 15.3434 0 16.4996C0 17.6559 0.458765 18.7651 1.27536 19.5839L1.27533 19.584ZM10.7455 15.7138C10.9546 15.5045 11.2384 15.3866 11.5344 15.3866C11.8304 15.3866 12.1143 15.5045 12.3234 15.7138L14.5115 17.8974L19.6766 12.7337C19.9617 12.4683 20.3643 12.3704 20.7394 12.4758C21.1142 12.5809 21.4072 12.874 21.5126 13.249C21.6178 13.624 21.5199 14.0267 21.2545 14.3116L15.3005 20.2655V20.2658C15.0914 20.4754 14.8076 20.5935 14.5115 20.5935C14.2153 20.5935 13.9314 20.4753 13.7226 20.2658L10.7455 17.2887C10.5362 17.0796 10.4183 16.7958 10.4183 16.4997C10.4183 16.2037 10.5362 15.9199 10.7455 15.7108L10.7455 15.7138Z" fill="url(#paint0_linear_303_4791)"/>
<defs>
<linearGradient id="paint0_linear_303_4791" x1="-0.332492" y1="2.7345" x2="26.3228" y2="29.8579" gradientUnits="userSpaceOnUse">
<stop stop-color="#00AEEF"/>
<stop offset="1" stop-color="#4068B2"/>
</linearGradient>
</defs>
</svg>
