<svg width="30" height="31" viewBox="0 0 30 31" fill="none" xmlns="http://www.w3.org/2000/svg">
<path d="M15 30.5C23.2843 30.5 30 23.7843 30 15.5C30 7.21573 23.2843 0.5 15 0.5C6.71573 0.5 0 7.21573 0 15.5C0 23.7843 6.71573 30.5 15 30.5Z" fill="#0D1E30"/>
<g filter="url(#filter0_d_781_677)">
<path d="M14.7422 6.18123C15.1913 5.94966 15.7397 6.48498 15.5016 6.92654C15.3619 7.28654 14.8359 7.38216 14.5678 7.10748C14.2838 6.84498 14.3766 6.32373 14.7422 6.18029V6.18123ZM9.90939 6.6931C10.1822 6.58248 10.5281 6.8281 10.5 7.12154C10.5281 7.43841 10.1344 7.67279 9.85595 7.52185C9.48751 7.38123 9.5297 6.79248 9.90939 6.6931ZM19.8075 7.53029C19.3809 7.47966 19.3134 6.81966 19.7231 6.68654C20.0419 6.53466 20.3344 6.8206 20.3813 7.11779C20.3138 7.37091 20.0981 7.60341 19.8075 7.53029ZM11.0091 8.71622C11.4656 8.43216 12.1163 8.85497 12.0459 9.37716C12.0225 9.9031 11.3119 10.2087 10.9106 9.85247C10.5225 9.5731 10.5816 8.93185 11.0091 8.71622ZM17.9747 9.0181C18.1781 8.50248 19.0031 8.4856 19.2347 8.9881C19.4644 9.37904 19.1822 9.86372 18.7744 9.99685C18.2334 10.0962 17.7206 9.5206 17.9747 9.0181ZM14.16 9.96779C14.1553 9.52341 14.5659 9.19341 14.9944 9.16247C15.2794 9.21872 15.5888 9.33779 15.7106 9.61997C15.9384 10.01 15.7359 10.5453 15.3263 10.7243C15.1388 10.8275 14.9156 10.789 14.7113 10.7768C14.3991 10.6268 14.1356 10.3297 14.16 9.96779ZM6.97314 10.6147C7.39032 10.3615 7.95282 10.8209 7.79439 11.2672C7.70814 11.6525 7.18126 11.809 6.88032 11.5634C6.55876 11.3328 6.60939 10.7787 6.97407 10.6137L6.97314 10.6147ZM22.4063 10.6128C22.7597 10.3428 23.3438 10.6531 23.3006 11.0918C23.325 11.4922 22.8197 11.795 22.4691 11.5887C22.0828 11.4172 22.0425 10.8322 22.4063 10.6137V10.6128ZM16.1813 11.4106C16.7644 11.2043 17.4581 11.4509 17.79 11.9637C18.2288 12.589 17.9963 13.5415 17.3147 13.9006C16.6097 14.3253 15.5794 13.9662 15.3178 13.19C15.0225 12.4962 15.4538 11.6281 16.1803 11.4106H16.1813ZM12.7566 11.479C13.4034 11.179 14.2744 11.4303 14.5866 12.0809C14.9541 12.7147 14.67 13.5968 14.0128 13.924C13.3547 14.2925 12.4256 14.0131 12.1078 13.3334C11.7506 12.6753 12.0675 11.7818 12.7566 11.479ZM9.32814 12.6312C9.37782 12.2215 9.77064 11.9543 10.1672 11.9262C10.374 11.9481 10.5673 12.0394 10.7155 12.1854C10.8636 12.3313 10.9579 12.5232 10.9828 12.7297C10.9547 13.1515 10.6238 13.5622 10.17 13.5603C9.67032 13.6025 9.23251 13.1131 9.32814 12.6312ZM19.455 12.0162C19.9678 11.7228 20.6794 12.1493 20.6569 12.7287C20.6916 13.3428 19.9041 13.775 19.3941 13.415C18.8634 13.115 18.9047 12.2712 19.455 12.0162ZM11.3644 14.179C11.9625 14.0168 12.6488 14.2943 12.9422 14.8362C13.2638 15.3818 13.1325 16.1393 12.6328 16.5406C11.9906 17.1275 10.8084 16.8912 10.4672 16.0906C10.0744 15.3565 10.5516 14.3722 11.3634 14.1781L11.3644 14.179ZM17.8584 14.1762C18.4406 14.0122 19.125 14.2325 19.4381 14.7547C19.8525 15.3518 19.6547 16.2434 19.0388 16.6278C18.3919 17.075 17.3925 16.8406 17.0363 16.1412C16.605 15.4184 17.0391 14.3965 17.8584 14.1762ZM7.50845 14.8568C8.02595 14.6647 8.5997 15.2262 8.3897 15.7315C8.2622 16.1909 7.60314 16.3615 7.26282 16.0222C6.86439 15.7034 7.01157 14.9956 7.50845 14.8568ZM21.5419 15.59C21.5322 15.3836 21.6043 15.1817 21.7427 15.0283C21.881 14.8748 22.0744 14.7822 22.2806 14.7706C22.635 14.8268 22.98 15.1081 22.9519 15.4878C22.9847 15.9893 22.3706 16.3297 21.9356 16.0943C21.7322 15.9922 21.6281 15.7868 21.5419 15.59ZM4.96314 15.1062C5.27439 14.9722 5.6597 15.2375 5.58845 15.5778C5.57157 15.9631 4.99314 16.1122 4.78126 15.7897C4.59376 15.5656 4.70626 15.2215 4.96314 15.1053V15.1062ZM24.6028 15.0978C24.8222 14.945 25.1747 15.0547 25.2609 15.3068C25.4081 15.5825 25.1381 15.9593 24.8231 15.9134C24.3806 15.9528 24.2381 15.29 24.6028 15.0978ZM13.0556 16.9475C13.875 16.7384 14.7563 17.4106 14.7619 18.2412C14.8144 19.0803 13.9463 19.8237 13.1081 19.6306C12.4594 19.5275 11.9503 18.9125 11.9719 18.2684C11.97 17.6515 12.4425 17.0778 13.0556 16.9475ZM16.3013 16.9465C17.1328 16.7178 18.0403 17.4022 18.0272 18.2515C18.0713 19.0747 17.2303 19.7937 16.4091 19.6297C15.6356 19.5322 15.0656 18.6968 15.2813 17.9581C15.39 17.4668 15.8081 17.0675 16.3013 16.9456V16.9465ZM10.0425 17.4575C10.6181 17.3609 11.1581 17.9918 10.9247 18.53C10.7541 19.1037 9.90657 19.2584 9.53157 18.7906C9.09282 18.3406 9.42095 17.5193 10.0425 17.4575ZM19.5619 17.4828C20.0756 17.2709 20.7056 17.7078 20.6663 18.2562C20.6869 18.859 19.9088 19.2753 19.4072 18.9228C18.8381 18.6068 18.9422 17.6759 19.5619 17.4828ZM22.2225 20.1078C22.0219 19.7393 22.3866 19.2509 22.8038 19.3193C23.01 19.3156 23.1553 19.4759 23.2875 19.6109C23.3147 19.8293 23.3606 20.09 23.1759 20.2578C22.9256 20.57 22.3584 20.4809 22.2225 20.1078ZM6.97126 19.4215C7.36032 19.1675 7.92001 19.5472 7.83189 19.9934C7.78501 20.39 7.27876 20.6159 6.94595 20.3909C6.58782 20.1875 6.60095 19.6072 6.97126 19.4215ZM14.6522 20.2493C15.1613 20.029 15.81 20.465 15.7613 21.0162C15.7988 21.6256 14.9972 22.0475 14.4994 21.6818C13.9463 21.3678 14.0391 20.4434 14.6522 20.2493ZM11.0953 21.0659C11.5284 20.8418 12.1097 21.229 12.0703 21.7072C12.0834 22.099 11.6953 22.4328 11.3016 22.3747C10.9763 22.3681 10.7644 22.0803 10.6594 21.8075C10.665 21.5103 10.7897 21.1793 11.0953 21.0668V21.0659ZM18.3009 21.0734C18.7472 20.8015 19.3809 21.1915 19.3388 21.7015C19.35 22.2359 18.6338 22.5772 18.2184 22.2265C17.8172 21.9518 17.8659 21.2918 18.3009 21.0734ZM19.5544 24.1203C19.3556 23.8259 19.5891 23.4706 19.9106 23.4031C20.1703 23.4547 20.445 23.6468 20.3897 23.9412C20.3522 24.3415 19.7578 24.4634 19.5544 24.1212V24.1203ZM9.60657 23.8643C9.68532 23.63 9.87657 23.3984 10.1569 23.4593C10.5647 23.4875 10.6856 24.0931 10.3284 24.2797C10.0078 24.4925 9.6347 24.2009 9.60657 23.8643ZM14.4066 24.1334C14.4844 23.7865 14.9391 23.6187 15.2391 23.8025C15.4378 23.8868 15.4959 24.1043 15.5466 24.29C15.5198 24.3864 15.4948 24.4833 15.4716 24.5806C15.3488 24.7231 15.1903 24.8665 14.9859 24.8618C14.6063 24.9059 14.2631 24.4831 14.4056 24.1334H14.4066Z" fill="black"/>
</g>
<path d="M14.7422 6.18123C15.1913 5.94966 15.7397 6.48498 15.5016 6.92654C15.3619 7.28654 14.8359 7.38216 14.5678 7.10748C14.2838 6.84498 14.3766 6.32373 14.7422 6.18029V6.18123ZM9.90939 6.6931C10.1822 6.58248 10.5281 6.8281 10.5 7.12154C10.5281 7.43841 10.1344 7.67279 9.85595 7.52185C9.48751 7.38123 9.5297 6.79248 9.90939 6.6931ZM19.8075 7.53029C19.3809 7.47966 19.3134 6.81966 19.7231 6.68654C20.0419 6.53466 20.3344 6.8206 20.3813 7.11779C20.3138 7.37091 20.0981 7.60341 19.8075 7.53029ZM11.0091 8.71622C11.4656 8.43216 12.1163 8.85497 12.0459 9.37716C12.0225 9.9031 11.3119 10.2087 10.9106 9.85247C10.5225 9.5731 10.5816 8.93185 11.0091 8.71622ZM17.9747 9.0181C18.1781 8.50248 19.0031 8.4856 19.2347 8.9881C19.4644 9.37904 19.1822 9.86372 18.7744 9.99685C18.2334 10.0962 17.7206 9.5206 17.9747 9.0181ZM14.16 9.96779C14.1553 9.52341 14.5659 9.19341 14.9944 9.16247C15.2794 9.21872 15.5888 9.33779 15.7106 9.61997C15.9384 10.01 15.7359 10.5453 15.3263 10.7243C15.1388 10.8275 14.9156 10.789 14.7113 10.7768C14.3991 10.6268 14.1356 10.3297 14.16 9.96779ZM6.97314 10.6147C7.39032 10.3615 7.95282 10.8209 7.79439 11.2672C7.70814 11.6525 7.18126 11.809 6.88032 11.5634C6.55876 11.3328 6.60939 10.7787 6.97407 10.6137L6.97314 10.6147ZM22.4063 10.6128C22.7597 10.3428 23.3438 10.6531 23.3006 11.0918C23.325 11.4922 22.8197 11.795 22.4691 11.5887C22.0828 11.4172 22.0425 10.8322 22.4063 10.6137V10.6128ZM16.1813 11.4106C16.7644 11.2043 17.4581 11.4509 17.79 11.9637C18.2288 12.589 17.9963 13.5415 17.3147 13.9006C16.6097 14.3253 15.5794 13.9662 15.3178 13.19C15.0225 12.4962 15.4538 11.6281 16.1803 11.4106H16.1813ZM12.7566 11.479C13.4034 11.179 14.2744 11.4303 14.5866 12.0809C14.9541 12.7147 14.67 13.5968 14.0128 13.924C13.3547 14.2925 12.4256 14.0131 12.1078 13.3334C11.7506 12.6753 12.0675 11.7818 12.7566 11.479ZM9.32814 12.6312C9.37782 12.2215 9.77064 11.9543 10.1672 11.9262C10.374 11.9481 10.5673 12.0394 10.7155 12.1854C10.8636 12.3313 10.9579 12.5232 10.9828 12.7297C10.9547 13.1515 10.6238 13.5622 10.17 13.5603C9.67032 13.6025 9.23251 13.1131 9.32814 12.6312ZM19.455 12.0162C19.9678 11.7228 20.6794 12.1493 20.6569 12.7287C20.6916 13.3428 19.9041 13.775 19.3941 13.415C18.8634 13.115 18.9047 12.2712 19.455 12.0162ZM11.3644 14.179C11.9625 14.0168 12.6488 14.2943 12.9422 14.8362C13.2638 15.3818 13.1325 16.1393 12.6328 16.5406C11.9906 17.1275 10.8084 16.8912 10.4672 16.0906C10.0744 15.3565 10.5516 14.3722 11.3634 14.1781L11.3644 14.179ZM17.8584 14.1762C18.4406 14.0122 19.125 14.2325 19.4381 14.7547C19.8525 15.3518 19.6547 16.2434 19.0388 16.6278C18.3919 17.075 17.3925 16.8406 17.0363 16.1412C16.605 15.4184 17.0391 14.3965 17.8584 14.1762ZM7.50845 14.8568C8.02595 14.6647 8.5997 15.2262 8.3897 15.7315C8.2622 16.1909 7.60314 16.3615 7.26282 16.0222C6.86439 15.7034 7.01157 14.9956 7.50845 14.8568ZM21.5419 15.59C21.5322 15.3836 21.6043 15.1817 21.7427 15.0283C21.881 14.8748 22.0744 14.7822 22.2806 14.7706C22.635 14.8268 22.98 15.1081 22.9519 15.4878C22.9847 15.9893 22.3706 16.3297 21.9356 16.0943C21.7322 15.9922 21.6281 15.7868 21.5419 15.59ZM4.96314 15.1062C5.27439 14.9722 5.6597 15.2375 5.58845 15.5778C5.57157 15.9631 4.99314 16.1122 4.78126 15.7897C4.59376 15.5656 4.70626 15.2215 4.96314 15.1053V15.1062ZM24.6028 15.0978C24.8222 14.945 25.1747 15.0547 25.2609 15.3068C25.4081 15.5825 25.1381 15.9593 24.8231 15.9134C24.3806 15.9528 24.2381 15.29 24.6028 15.0978ZM13.0556 16.9475C13.875 16.7384 14.7563 17.4106 14.7619 18.2412C14.8144 19.0803 13.9463 19.8237 13.1081 19.6306C12.4594 19.5275 11.9503 18.9125 11.9719 18.2684C11.97 17.6515 12.4425 17.0778 13.0556 16.9475ZM16.3013 16.9465C17.1328 16.7178 18.0403 17.4022 18.0272 18.2515C18.0713 19.0747 17.2303 19.7937 16.4091 19.6297C15.6356 19.5322 15.0656 18.6968 15.2813 17.9581C15.39 17.4668 15.8081 17.0675 16.3013 16.9456V16.9465ZM10.0425 17.4575C10.6181 17.3609 11.1581 17.9918 10.9247 18.53C10.7541 19.1037 9.90657 19.2584 9.53157 18.7906C9.09282 18.3406 9.42095 17.5193 10.0425 17.4575ZM19.5619 17.4828C20.0756 17.2709 20.7056 17.7078 20.6663 18.2562C20.6869 18.859 19.9088 19.2753 19.4072 18.9228C18.8381 18.6068 18.9422 17.6759 19.5619 17.4828ZM22.2225 20.1078C22.0219 19.7393 22.3866 19.2509 22.8038 19.3193C23.01 19.3156 23.1553 19.4759 23.2875 19.6109C23.3147 19.8293 23.3606 20.09 23.1759 20.2578C22.9256 20.57 22.3584 20.4809 22.2225 20.1078ZM6.97126 19.4215C7.36032 19.1675 7.92001 19.5472 7.83189 19.9934C7.78501 20.39 7.27876 20.6159 6.94595 20.3909C6.58782 20.1875 6.60095 19.6072 6.97126 19.4215ZM14.6522 20.2493C15.1613 20.029 15.81 20.465 15.7613 21.0162C15.7988 21.6256 14.9972 22.0475 14.4994 21.6818C13.9463 21.3678 14.0391 20.4434 14.6522 20.2493ZM11.0953 21.0659C11.5284 20.8418 12.1097 21.229 12.0703 21.7072C12.0834 22.099 11.6953 22.4328 11.3016 22.3747C10.9763 22.3681 10.7644 22.0803 10.6594 21.8075C10.665 21.5103 10.7897 21.1793 11.0953 21.0668V21.0659ZM18.3009 21.0734C18.7472 20.8015 19.3809 21.1915 19.3388 21.7015C19.35 22.2359 18.6338 22.5772 18.2184 22.2265C17.8172 21.9518 17.8659 21.2918 18.3009 21.0734ZM19.5544 24.1203C19.3556 23.8259 19.5891 23.4706 19.9106 23.4031C20.1703 23.4547 20.445 23.6468 20.3897 23.9412C20.3522 24.3415 19.7578 24.4634 19.5544 24.1212V24.1203ZM9.60657 23.8643C9.68532 23.63 9.87657 23.3984 10.1569 23.4593C10.5647 23.4875 10.6856 24.0931 10.3284 24.2797C10.0078 24.4925 9.6347 24.2009 9.60657 23.8643ZM14.4066 24.1334C14.4844 23.7865 14.9391 23.6187 15.2391 23.8025C15.4378 23.8868 15.4959 24.1043 15.5466 24.29C15.5198 24.3864 15.4948 24.4833 15.4716 24.5806C15.3488 24.7231 15.1903 24.8665 14.9859 24.8618C14.6063 24.9059 14.2631 24.4831 14.4056 24.1334H14.4066Z" fill="white"/>
<defs>
<filter id="filter0_d_781_677" x="3.68793" y="5.62537" width="22.6143" height="20.7396" filterUnits="userSpaceOnUse" color-interpolation-filters="sRGB">
<feFlood flood-opacity="0" result="BackgroundImageFix"/>
<feColorMatrix in="SourceAlpha" type="matrix" values="0 0 0 0 0 0 0 0 0 0 0 0 0 0 0 0 0 0 127 0" result="hardAlpha"/>
<feOffset dy="0.5"/>
<feGaussianBlur stdDeviation="0.5"/>
<feColorMatrix type="matrix" values="0 0 0 0 0 0 0 0 0 0 0 0 0 0 0 0 0 0 0.204257 0"/>
<feBlend mode="normal" in2="BackgroundImageFix" result="effect1_dropShadow_781_677"/>
<feBlend mode="normal" in="SourceGraphic" in2="effect1_dropShadow_781_677" result="shape"/>
</filter>
</defs>
</svg>
