<svg xmlns="http://www.w3.org/2000/svg" xmlns:xlink="http://www.w3.org/1999/xlink" viewBox="0,0,256,256" width="100px" height="100px"><g fill="#1799ca" fill-rule="nonzero" stroke="none" stroke-width="1" stroke-linecap="butt" stroke-linejoin="miter" stroke-miterlimit="10" stroke-dasharray="" stroke-dashoffset="0" font-family="none" font-weight="none" font-size="none" text-anchor="none" style="mix-blend-mode: normal"><g transform="scale(2.56,2.56)"><path d="M25.7832,17c-5.395,0 -9.7832,4.374 -9.7832,9.75v45.5c0,5.376 4.3882,9.75 9.7832,9.75h42.16211c0.322,0 0.6245,-0.15402 0.8125,-0.41602c0.188,-0.26 0.23872,-0.59539 0.13672,-0.90039l-0.71094,-2.125l13.20508,10.23047c0.178,0.139 0.39333,0.21094 0.61133,0.21094c0.15,0 0.29945,-0.03352 0.43945,-0.10352c0.343,-0.168 0.56055,-0.51448 0.56055,-0.89648v-61.25c0,-5.376 -4.3892,-9.75 -9.7832,-9.75zM25.7832,19h47.43359c4.292,0 7.7832,3.477 7.7832,7.75v59.21094l-14.19922,-11.00391c-0.179,-0.14 -0.39533,-0.20898 -0.61133,-0.20898c-0.203,0 -0.40512,0.06159 -0.57812,0.18359c-0.36,0.255 -0.51109,0.71481 -0.37109,1.13281l1.31641,3.93555h-40.77344c-4.292,0 -7.7832,-3.477 -7.7832,-7.75v-45.5c0,-4.273 3.4912,-7.75 7.7832,-7.75zM26.6582,22c-3.12,0 -5.6582,2.5382 -5.6582,5.6582v43.68359c0,3.12 2.5382,5.6582 5.6582,5.6582c0.276,0 0.5,-0.224 0.5,-0.5c0,-0.276 -0.224,-0.5 -0.5,-0.5c-2.569,0 -4.6582,-2.0902 -4.6582,-4.6582v-43.68359c0,-2.569 2.0892,-4.6582 4.6582,-4.6582h45.68555c0.276,0 0.5,-0.224 0.5,-0.5c0,-0.276 -0.224,-0.5 -0.5,-0.5zM77.5,31.2832c-0.276,0 -0.5,0.224 -0.5,0.5v4.46875c0,0.276 0.224,0.5 0.5,0.5c0.276,0 0.5,-0.224 0.5,-0.5v-4.46875c0,-0.276 -0.224,-0.5 -0.5,-0.5zM43.63477,33c-0.032,0 -0.0637,0.00286 -0.0957,0.00586c-5.782,0.556 -10.11197,3.92341 -10.29297,4.06641c-0.078,0.061 -0.14517,0.13384 -0.20117,0.21484c-0.211,0.304 -5.17597,7.60908 -6.04297,21.83008c-0.016,0.263 0.07114,0.5227 0.24414,0.7207c5.293,6.057 13.12798,6.16111 13.45898,6.16211h0.00586c0.315,0 0.61178,-0.14934 0.80078,-0.40234l1.58203,-2.11719c0.191,-0.256 0.2483,-0.58758 0.1543,-0.89258c-0.079,-0.256 -0.25528,-0.4688 -0.48828,-0.5918c2.058,0.374 4.30023,0.55859 6.74023,0.55859c2.44,0 4.68223,-0.18459 6.74023,-0.55859c-0.234,0.123 -0.40928,0.3358 -0.48828,0.5918c-0.094,0.305 -0.0377,0.63658 0.1543,0.89258l1.58203,2.11719c0.189,0.253 0.48578,0.40234 0.80078,0.40234h0.00586c0.331,-0.001 8.16598,-0.10511 13.45898,-6.16211c0.173,-0.198 0.26014,-0.4577 0.24414,-0.7207c-0.867,-14.221 -5.83197,-21.52608 -6.04297,-21.83008c-0.058,-0.084 -0.12798,-0.1577 -0.20898,-0.2207c-0.192,-0.149 -4.77264,-3.6485 -10.30664,-4.0625c-0.024,-0.002 -0.04922,-0.00391 -0.07422,-0.00391c-0.379,0 -0.72944,0.21555 -0.89844,0.56055l-0.46289,0.94727c-0.125,0.255 -0.13625,0.5505 -0.03125,0.8125c-1.346,-0.177 -2.81241,-0.27344 -4.44141,-0.27344c-1.655,0 -3.14286,0.09834 -4.50586,0.27734c0.107,-0.263 0.0967,-0.55941 -0.0293,-0.81641l-0.46289,-0.94727c-0.169,-0.345 -0.51944,-0.56055 -0.89844,-0.56055zM43.63477,34l0.46484,0.94727c-4.352,0.964 -6.96591,2.82305 -9.25391,4.87305c3.939,-2.015 7.87355,-3.77344 14.68555,-3.77344c6.812,0 10.68405,1.75844 14.62305,3.77344c-2.288,-2.049 -4.47191,-3.71905 -9.25391,-4.87305l0.46484,-0.94727c5.298,0.396 9.76953,3.85742 9.76953,3.85742c0,0 5.00523,7.21727 5.86523,21.32227c-5.057,5.787 -12.71094,5.82031 -12.71094,5.82031l-1.58203,-2.11719c2.7,-0.93 5.77873,-2.60181 8.42773,-5.63281c-3.165,2.377 -7.92877,4.30664 -15.63477,4.30664c-7.706,0 -12.46977,-1.92964 -15.63477,-4.30664c2.649,3.031 5.72773,4.70281 8.42773,5.63281l-1.58203,2.11719c0,0 -7.65394,-0.03331 -12.71094,-5.82031c0.86,-14.105 5.86523,-21.32227 5.86523,-21.32227c0,0 4.21353,-3.32342 9.76953,-3.85742zM77.5,38.81445c-0.276,0 -0.5,0.224 -0.5,0.5v5.49023c0,0.276 0.224,0.5 0.5,0.5c0.276,0 0.5,-0.224 0.5,-0.5v-5.49023c0,-0.276 -0.224,-0.5 -0.5,-0.5zM43,46c-2.206,0 -4,2.243 -4,5c0,2.757 1.794,5 4,5c2.206,0 4,-2.243 4,-5c0,-2.757 -1.794,-5 -4,-5zM56,46c-2.206,0 -4,2.243 -4,5c0,2.757 1.794,5 4,5c2.206,0 4,-2.243 4,-5c0,-2.757 -1.794,-5 -4,-5zM43,47c1.65,0 3,1.792 3,4c0,2.208 -1.35,4 -3,4c-1.65,0 -3,-1.792 -3,-4c0,-2.208 1.35,-4 3,-4zM56,47c1.65,0 3,1.792 3,4c0,2.208 -1.35,4 -3,4c-1.65,0 -3,-1.792 -3,-4c0,-2.208 1.35,-4 3,-4zM77.5,48.39063c-0.276,0 -0.5,0.224 -0.5,0.5v22.45117c0,1.406 -0.6258,2.72333 -1.7168,3.61133c-0.214,0.175 -0.24627,0.48913 -0.07227,0.70313c0.099,0.122 0.24267,0.18555 0.38867,0.18555c0.111,0 0.22145,-0.03633 0.31445,-0.11133c1.325,-1.08 2.08594,-2.68067 2.08594,-4.38867v-22.45117c0,-0.276 -0.224,-0.5 -0.5,-0.5zM29.88281,76c-0.276,0 -0.5,0.224 -0.5,0.5c0,0.276 0.224,0.5 0.5,0.5h7.18164c0.276,0 0.5,-0.224 0.5,-0.5c0,-0.276 -0.224,-0.5 -0.5,-0.5zM41.37305,76c-0.276,0 -0.5,0.224 -0.5,0.5c0,0.276 0.224,0.5 0.5,0.5h19.5c0.276,0 0.5,-0.224 0.5,-0.5c0,-0.276 -0.224,-0.5 -0.5,-0.5z"></path></g></g></svg>