<svg width="50" height="60" viewBox="0 0 50 60" fill="none" xmlns="http://www.w3.org/2000/svg">
<path fill-rule="evenodd" clip-rule="evenodd" d="M33.6766 0C43.4391 0 49.04 4.83235 49.04 13.2508V55.0871C49.04 56.8427 48.1362 58.4228 46.6166 59.3064C45.1027 60.1928 43.278 60.2101 41.7468 59.3467L24.5933 49.6561L7.28142 59.3668C6.53312 59.787 5.71285 60 4.88971 60C4.04067 60 3.19163 59.7726 2.42029 59.3179C0.903529 58.4343 -0.000198364 56.8542 -0.000198364 55.1015V12.7241C-0.000198364 4.63664 5.60349 0 15.3747 0H33.6766ZM33.6766 4.31717H15.3747C8.03837 4.31717 4.31697 7.14347 4.31697 12.7241V55.1015C4.31697 55.372 4.47239 55.5188 4.6019 55.5936C4.73142 55.6742 4.93576 55.7318 5.17177 55.5994L23.5399 45.2957C24.1961 44.9302 24.9991 44.9273 25.6582 45.2986L43.868 55.585C44.1069 55.7231 44.3112 55.6598 44.4407 55.5821C44.5702 55.5044 44.7228 55.3576 44.7228 55.0871L44.7217 12.9229C44.7 10.4457 44.2207 4.31717 33.6766 4.31717ZM34.9395 19.3654C36.131 19.3654 37.0981 20.3324 37.0981 21.524C37.0981 22.7155 36.131 23.6825 34.9395 23.6825H13.8775C12.6859 23.6825 11.7189 22.7155 11.7189 21.524C11.7189 20.3324 12.6859 19.3654 13.8775 19.3654H34.9395Z" fill="url(#paint0_linear_154_20790)"/>
<defs>
<linearGradient id="paint0_linear_154_20790" x1="-0.509754" y1="4.18969" x2="48.6396" y2="45.0675" gradientUnits="userSpaceOnUse">
<stop stop-color="#00AEEF"/>
<stop offset="1" stop-color="#4068B2"/>
</linearGradient>
</defs>
</svg>
